<svg xmlns="http://www.w3.org/2000/svg" viewBox="0 0 1600 900" role="img" aria-label="Isometric AI signal lab">
  <defs>
    <linearGradient id="bg" x1="0" x2="1" y1="0" y2="1">
      <stop offset="0" stop-color="#092126"/>
      <stop offset="0.55" stop-color="#071013"/>
      <stop offset="1" stop-color="#102237"/>
    </linearGradient>
    <filter id="blur"><feGaussianBlur stdDeviation="22"/></filter>
  </defs>
  <rect width="1600" height="900" fill="url(#bg)"/>
  <circle cx="1180" cy="170" r="220" fill="#17d7c8" opacity="0.12" filter="url(#blur)"/>
  <circle cx="410" cy="730" r="260" fill="#f96fb3" opacity="0.12" filter="url(#blur)"/>
  <ellipse cx="880" cy="700" rx="420" ry="96" fill="#000" opacity="0.34"/>
  <polygon points="452,610 856,420 1258,610 858,808" fill="#102a30"/>
  <polygon points="452,610 856,808 856,862 452,662" fill="#0a1c20"/>
  <polygon points="1258,610 856,808 856,862 1258,662" fill="#07161a"/>
  <g stroke="#17d7c8" stroke-width="7" stroke-linecap="round" opacity="0.86">
    <path d="M628 620 C736 552 840 548 944 618 S1132 684 1192 612" fill="none"/>
    <path d="M610 680 C720 610 838 604 956 682 S1136 748 1216 672" fill="none" opacity="0.45"/>
  </g>
  <g fill="#e9fbff">
    <rect x="720" y="500" width="260" height="168" rx="18" fill="#d9f8f6"/>
    <rect x="748" y="532" width="204" height="82" rx="10" fill="#071013"/>
    <circle cx="788" cy="642" r="12" fill="#17d7c8"/>
    <circle cx="836" cy="642" r="12" fill="#6fa8ff"/>
    <circle cx="884" cy="642" r="12" fill="#f96fb3"/>
  </g>
  <g fill="#17d7c8">
    <circle cx="560" cy="540" r="28"/>
    <circle cx="610" cy="500" r="18" opacity="0.75"/>
    <circle cx="1078" cy="528" r="24"/>
    <circle cx="1128" cy="570" r="16" opacity="0.75"/>
  </g>
</svg>
