<svg xmlns="http://www.w3.org/2000/svg" viewBox="0 0 1600 900" role="img" aria-label="Isometric production systems floor">
  <defs>
    <linearGradient id="bg" x1="0" x2="1" y1="0" y2="1">
      <stop offset="0" stop-color="#071013"/>
      <stop offset="1" stop-color="#172512"/>
    </linearGradient>
  </defs>
  <rect width="1600" height="900" fill="url(#bg)"/>
  <ellipse cx="850" cy="720" rx="470" ry="104" fill="#000" opacity="0.34"/>
  <polygon points="408,606 850,386 1292,606 850,828" fill="#142a20"/>
  <polygon points="408,606 850,828 850,874 408,656" fill="#0a1813"/>
  <polygon points="1292,606 850,828 850,874 1292,656" fill="#07140f"/>
  <g fill="none" stroke="#8be36d" stroke-width="12" stroke-linecap="round" stroke-linejoin="round">
    <path d="M566 628 L764 530 L982 640 L1168 548"/>
    <path d="M640 688 L836 590 L1056 700" opacity="0.45"/>
  </g>
  <g>
    <rect x="650" y="506" width="132" height="92" rx="13" fill="#d8ffd2"/>
    <rect x="826" y="430" width="154" height="106" rx="13" fill="#e8f8ff"/>
    <rect x="1018" y="564" width="140" height="94" rx="13" fill="#f7d48a"/>
    <circle cx="716" cy="552" r="18" fill="#071013"/>
    <circle cx="904" cy="482" r="18" fill="#071013"/>
    <circle cx="1088" cy="612" r="18" fill="#071013"/>
  </g>
  <g fill="#8be36d" opacity="0.82">
    <circle cx="520" cy="455" r="10"/>
    <circle cx="570" cy="420" r="7"/>
    <circle cx="1220" cy="442" r="11"/>
    <circle cx="1270" cy="500" r="8"/>
  </g>
</svg>
