<svg xmlns="http://www.w3.org/2000/svg" viewBox="0 0 1200 760"><defs><linearGradient id="s" x1="0" x2="1" y1="0" y2="1"><stop offset="0" stop-color="#2c1730"/><stop offset=".55" stop-color="#6d3245"/><stop offset="1" stop-color="#071013"/></linearGradient></defs><rect width="1200" height="760" fill="url(#s)"/><circle cx="1010" cy="120" r="70" fill="#ffb657" opacity=".84"/><path d="M0 590 C240 530 420 604 620 552 C835 498 1010 544 1200 490 L1200 760 L0 760Z" fill="#132323"/><g transform="translate(245 160)"><rect x="0" y="185" width="710" height="270" rx="12" fill="#b6614b"/><rect x="56" y="120" width="125" height="335" fill="#cc7655"/><rect x="286" y="82" width="138" height="373" fill="#d3805b"/><rect x="528" y="120" width="125" height="335" fill="#cc7655"/><path d="M40 120 L118 48 L198 120Z" fill="#8e403c"/><path d="M270 82 L355 0 L442 82Z" fill="#8e403c"/><path d="M512 120 L590 48 L670 120Z" fill="#8e403c"/><g fill="#402321" opacity=".68"><path d="M84 254 a34 46 0 0 1 68 0 v86 H84Z"/><path d="M318 230 a38 54 0 0 1 76 0 v110 H318Z"/><path d="M560 254 a34 46 0 0 1 68 0 v86 H560Z"/></g><g fill="#ffd38f" opacity=".85"><rect x="226" y="234" width="34" height="44" rx="3"/><rect x="455" y="234" width="34" height="44" rx="3"/><rect x="226" y="312" width="34" height="44" rx="3"/><rect x="455" y="312" width="34" height="44" rx="3"/></g></g><g transform="translate(750 510)"><rect x="0" y="0" width="138" height="94" rx="10" fill="#0d2930" stroke="#17d7c8" stroke-opacity=".4"/><path d="M30 66 h78" stroke="#17d7c8" stroke-width="7" stroke-linecap="round"/><path d="M46 30 h46 v34 H46Z" fill="none" stroke="#d5e2e6" stroke-width="6"/><circle cx="69" cy="82" r="5" fill="#ffb657"/></g></svg>