<svg xmlns="http://www.w3.org/2000/svg" viewBox="0 0 1200 760"><defs><linearGradient id="s" x1="0" x2="1" y1="0" y2="1"><stop offset="0" stop-color="#10233f"/><stop offset=".58" stop-color="#173b5f"/><stop offset="1" stop-color="#071013"/></linearGradient></defs><rect width="1200" height="760" fill="url(#s)"/><circle cx="1010" cy="120" r="64" fill="#ffcf76" opacity=".85"/><path d="M0 570 C220 530 365 610 590 560 C785 518 956 548 1200 506 L1200 760 L0 760Z" fill="#0b1f26"/><g fill="#17334d"><rect x="88" y="342" width="120" height="264"/><rect x="236" y="278" width="156" height="328"/><rect x="820" y="260" width="138" height="346"/><rect x="985" y="310" width="96" height="296"/></g><g fill="#ffe4a6" opacity=".72"><rect x="112" y="370" width="18" height="28"/><rect x="150" y="370" width="18" height="28"/><rect x="260" y="308" width="22" height="34"/><rect x="842" y="294" width="22" height="34"/><rect x="890" y="294" width="22" height="34"/></g><g transform="translate(540 210)"><circle cx="0" cy="0" r="170" fill="none" stroke="#dff7ff" stroke-width="12" opacity=".92"/><circle cx="0" cy="0" r="18" fill="#17d7c8"/><g stroke="#dff7ff" stroke-width="4" opacity=".62"><path d="M0-170 0 170"/><path d="M-170 0 170 0"/><path d="M-120-120 120 120"/><path d="M120-120-120 120"/></g></g><g transform="translate(690 234)"><rect x="0" y="90" width="58" height="282" fill="#d8c79b"/><rect x="8" y="38" width="42" height="62" fill="#c8b47d"/><path d="M29 0 L54 38 L4 38Z" fill="#a08b53"/><circle cx="29" cy="70" r="12" fill="#071013"/></g></svg>