<svg xmlns="http://www.w3.org/2000/svg" viewBox="0 0 1200 760"><defs><linearGradient id="s" x1="0" x2="1" y1="0" y2="1"><stop offset="0" stop-color="#102b40"/><stop offset=".52" stop-color="#14515f"/><stop offset="1" stop-color="#071013"/></linearGradient><linearGradient id="w" x1="0" x2="1"><stop offset="0" stop-color="#0b6b75"/><stop offset="1" stop-color="#17d7c8"/></linearGradient></defs><rect width="1200" height="760" fill="url(#s)"/><circle cx="970" cy="115" r="62" fill="#ffcf76" opacity=".82"/><path d="M0 472 C180 430 306 508 474 462 C682 405 830 474 1200 382 L1200 760 L0 760Z" fill="url(#w)" opacity=".78"/><path d="M0 575 C230 536 410 612 650 560 C845 520 995 548 1200 510 L1200 760 L0 760Z" fill="#0a2325"/><g fill="none" stroke="#d5e2e6" stroke-opacity=".4" stroke-width="4"><path d="M80 510 C220 486 328 526 470 500"/><path d="M690 474 C820 446 958 466 1090 420"/></g><g transform="translate(342 170)"><rect x="0" y="156" width="520" height="230" rx="10" fill="#c59464"/><rect x="50" y="108" width="88" height="278" fill="#d4a170"/><rect x="218" y="70" width="90" height="316" fill="#d8aa76"/><rect x="386" y="108" width="88" height="278" fill="#d4a170"/><path d="M34 108 L94 54 L154 108Z" fill="#8b5e45"/><path d="M202 70 L263 10 L324 70Z" fill="#8b5e45"/><path d="M370 108 L430 54 L490 108Z" fill="#8b5e45"/><g fill="#2b2524" opacity=".62"><path d="M72 230 a22 32 0 0 1 44 0 v62 H72Z"/><path d="M241 210 a23 36 0 0 1 46 0 v82 H241Z"/><path d="M408 230 a22 32 0 0 1 44 0 v62 H408Z"/></g></g><g transform="translate(150 448)" fill="#f4fbff" opacity=".82"><path d="M0 58 C48 10 102 10 150 58 C102 38 48 38 0 58Z"/><rect x="70" y="56" width="10" height="54"/></g></svg>