<svg xmlns="http://www.w3.org/2000/svg" viewBox="0 0 1200 760" role="img" aria-label="Seekace applied machine learning internship visual scene"><defs><linearGradient id="bg-seekace-applied-machine-learning-internship" x1="0" x2="1" y1="0" y2="1"><stop offset="0" stop-color="#071013"/><stop offset=".45" stop-color="#102d38"/><stop offset="1" stop-color="#071013"/></linearGradient><radialGradient id="glow-seekace-applied-machine-learning-internship" cx="50%" cy="40%" r="60%"><stop offset="0" stop-color="#8be36d" stop-opacity=".24"/><stop offset="1" stop-color="#8be36d" stop-opacity="0"/></radialGradient></defs><rect width="1200" height="760" fill="url(#bg-seekace-applied-machine-learning-internship)"/><rect width="1200" height="760" fill="url(#glow-seekace-applied-machine-learning-internship)"/><g opacity=".22" stroke="#f4fbff" stroke-width="2"><path d="M0 610 C210 540 360 650 560 585 C750 522 925 595 1200 520"/><path d="M0 660 C260 596 420 704 640 632 C855 568 1015 642 1200 590"/></g><g><rect x="275" y="190" width="650" height="390" rx="28" fill="#0f2b34" stroke="#8be36d" stroke-opacity=".35" stroke-width="5"/><g stroke="#f4fbff" stroke-opacity=".14" stroke-width="3"><path d="M330 500 h520"/><path d="M330 410 h520"/><path d="M330 320 h520"/></g><path d="M340 475 C430 385 500 438 575 330 C640 235 735 300 850 230" fill="none" stroke="#8be36d" stroke-width="12" stroke-linecap="round"/><g fill="#17d7c8"><circle cx="340" cy="475" r="14"/><circle cx="575" cy="330" r="14"/><circle cx="850" cy="230" r="14"/></g></g><g opacity=".16" fill="#f4fbff"><circle cx="140" cy="128" r="3"/><circle cx="1010" cy="178" r="4"/><circle cx="1070" cy="580" r="3"/><circle cx="210" cy="610" r="4"/></g></svg>