<svg xmlns="http://www.w3.org/2000/svg" viewBox="0 0 1200 760" role="img" aria-label="Tube Network Route Finder visual scene"><defs><linearGradient id="bg-tube-network-route-finder" x1="0" x2="1" y1="0" y2="1"><stop offset="0" stop-color="#071013"/><stop offset=".45" stop-color="#102d38"/><stop offset="1" stop-color="#071013"/></linearGradient><radialGradient id="glow-tube-network-route-finder" cx="50%" cy="40%" r="60%"><stop offset="0" stop-color="#6fa8ff" stop-opacity=".24"/><stop offset="1" stop-color="#6fa8ff" stop-opacity="0"/></radialGradient></defs><rect width="1200" height="760" fill="url(#bg-tube-network-route-finder)"/><rect width="1200" height="760" fill="url(#glow-tube-network-route-finder)"/><g opacity=".22" stroke="#f4fbff" stroke-width="2"><path d="M0 610 C210 540 360 650 560 585 C750 522 925 595 1200 520"/><path d="M0 660 C260 596 420 704 640 632 C855 568 1015 642 1200 590"/></g><g><g stroke="#f4fbff" stroke-opacity=".28" stroke-width="5"><path d="M365 255 580 190 805 285 720 520 455 505Z"/><path d="M580 190 720 520"/><path d="M365 255 805 285"/><path d="M455 505 805 285"/></g><g fill="#6fa8ff"><circle cx="365" cy="255" r="36"/><circle cx="580" cy="190" r="30"/><circle cx="805" cy="285" r="42"/><circle cx="720" cy="520" r="34"/><circle cx="455" cy="505" r="39"/></g><g fill="#f4fbff" opacity=".88"><circle cx="365" cy="255" r="12"/><circle cx="805" cy="285" r="14"/><circle cx="455" cy="505" r="13"/></g></g><g opacity=".16" fill="#f4fbff"><circle cx="140" cy="128" r="3"/><circle cx="1010" cy="178" r="4"/><circle cx="1070" cy="580" r="3"/><circle cx="210" cy="610" r="4"/></g></svg>