<svg xmlns="http://www.w3.org/2000/svg" viewBox="0 0 1200 760" role="img" aria-label="AI Healthcare Intel Engine visual scene"><defs><linearGradient id="bg-ai-healthcare-intel-engine" x1="0" x2="1" y1="0" y2="1"><stop offset="0" stop-color="#071013"/><stop offset=".45" stop-color="#102d38"/><stop offset="1" stop-color="#071013"/></linearGradient><radialGradient id="glow-ai-healthcare-intel-engine" cx="50%" cy="40%" r="60%"><stop offset="0" stop-color="#17d7c8" stop-opacity=".24"/><stop offset="1" stop-color="#17d7c8" stop-opacity="0"/></radialGradient></defs><rect width="1200" height="760" fill="url(#bg-ai-healthcare-intel-engine)"/><rect width="1200" height="760" fill="url(#glow-ai-healthcare-intel-engine)"/><g opacity=".22" stroke="#f4fbff" stroke-width="2"><path d="M0 610 C210 540 360 650 560 585 C750 522 925 595 1200 520"/><path d="M0 660 C260 596 420 704 640 632 C855 568 1015 642 1200 590"/></g><g><path d="M410 210 h290 a70 70 0 0 1 70 70 v150 a70 70 0 0 1-70 70 H410 a70 70 0 0 1-70-70 V280 a70 70 0 0 1 70-70Z" fill="#0f2d35" stroke="#17d7c8" stroke-opacity=".55" stroke-width="5"/><path d="M535 275 h70 v58 h58 v70 h-58 v58 h-70 v-58 h-58 v-70 h58Z" fill="#17d7c8" opacity=".85"/><g stroke="#f4fbff" stroke-opacity=".22" stroke-width="4"><path d="M370 520 C480 470 620 560 760 510"/><path d="M345 250 C510 310 590 170 770 245"/></g></g><g opacity=".16" fill="#f4fbff"><circle cx="140" cy="128" r="3"/><circle cx="1010" cy="178" r="4"/><circle cx="1070" cy="580" r="3"/><circle cx="210" cy="610" r="4"/></g></svg>