<svg xmlns="http://www.w3.org/2000/svg" viewBox="0 0 1200 760" role="img" aria-label="Local Lore Generator visual scene"><defs><linearGradient id="bg-local-lore-generator" x1="0" x2="1" y1="0" y2="1"><stop offset="0" stop-color="#071013"/><stop offset=".45" stop-color="#102d38"/><stop offset="1" stop-color="#071013"/></linearGradient><radialGradient id="glow-local-lore-generator" cx="50%" cy="40%" r="60%"><stop offset="0" stop-color="#ffb657" stop-opacity=".24"/><stop offset="1" stop-color="#ffb657" stop-opacity="0"/></radialGradient></defs><rect width="1200" height="760" fill="url(#bg-local-lore-generator)"/><rect width="1200" height="760" fill="url(#glow-local-lore-generator)"/><g opacity=".22" stroke="#f4fbff" stroke-width="2"><path d="M0 610 C210 540 360 650 560 585 C750 522 925 595 1200 520"/><path d="M0 660 C260 596 420 704 640 632 C855 568 1015 642 1200 590"/></g><g><path d="M300 505 C370 315 492 238 610 215 C734 240 842 330 900 505Z" fill="#122c36" stroke="#f96fb3" stroke-width="5" stroke-opacity=".45"/><circle cx="608" cy="285" r="70" fill="#17d7c8" opacity=".28"/><path d="M450 510 C510 420 690 420 760 510" fill="none" stroke="#ffb657" stroke-width="12" stroke-linecap="round"/><g fill="#ffcf76" opacity=".82"><circle cx="420" cy="250" r="8"/><circle cx="792" cy="255" r="7"/><circle cx="612" cy="160" r="9"/></g></g><g opacity=".16" fill="#f4fbff"><circle cx="140" cy="128" r="3"/><circle cx="1010" cy="178" r="4"/><circle cx="1070" cy="580" r="3"/><circle cx="210" cy="610" r="4"/></g></svg>