<svg xmlns="http://www.w3.org/2000/svg" viewBox="0 0 1200 760" role="img" aria-label="AcademicForge visual scene"><defs><linearGradient id="bg-academicforge" x1="0" x2="1" y1="0" y2="1"><stop offset="0" stop-color="#071013"/><stop offset=".45" stop-color="#102d38"/><stop offset="1" stop-color="#071013"/></linearGradient><radialGradient id="glow-academicforge" cx="50%" cy="40%" r="60%"><stop offset="0" stop-color="#17d7c8" stop-opacity=".24"/><stop offset="1" stop-color="#17d7c8" stop-opacity="0"/></radialGradient></defs><rect width="1200" height="760" fill="url(#bg-academicforge)"/><rect width="1200" height="760" fill="url(#glow-academicforge)"/><g opacity=".22" stroke="#f4fbff" stroke-width="2"><path d="M0 610 C210 540 360 650 560 585 C750 522 925 595 1200 520"/><path d="M0 660 C260 596 420 704 640 632 C855 568 1015 642 1200 590"/></g><g opacity=".9"><circle cx="350" cy="280" r="78" fill="#17d7c8" opacity=".22"/><circle cx="610" cy="220" r="58" fill="#6fa8ff" opacity=".25"/><circle cx="780" cy="365" r="88" fill="#ffb657" opacity=".18"/><g stroke="#f4fbff" stroke-opacity=".42" stroke-width="7" fill="none"><path d="M350 280 C470 210 520 250 610 220"/><path d="M610 220 C675 275 720 310 780 365"/><path d="M350 280 C475 385 630 430 780 365"/></g><g fill="#f4fbff"><circle cx="350" cy="280" r="16"/><circle cx="610" cy="220" r="13"/><circle cx="780" cy="365" r="18"/></g></g><g opacity=".16" fill="#f4fbff"><circle cx="140" cy="128" r="3"/><circle cx="1010" cy="178" r="4"/><circle cx="1070" cy="580" r="3"/><circle cx="210" cy="610" r="4"/></g></svg>