<svg xmlns="http://www.w3.org/2000/svg" viewBox="0 0 1200 760" role="img" aria-label="Pupil Anomaly Detection visual scene"><defs><linearGradient id="bg-pupil-anomaly-detection" x1="0" x2="1" y1="0" y2="1"><stop offset="0" stop-color="#071013"/><stop offset=".45" stop-color="#102d38"/><stop offset="1" stop-color="#071013"/></linearGradient><radialGradient id="glow-pupil-anomaly-detection" cx="50%" cy="40%" r="60%"><stop offset="0" stop-color="#f96fb3" stop-opacity=".24"/><stop offset="1" stop-color="#f96fb3" stop-opacity="0"/></radialGradient></defs><rect width="1200" height="760" fill="url(#bg-pupil-anomaly-detection)"/><rect width="1200" height="760" fill="url(#glow-pupil-anomaly-detection)"/><g opacity=".22" stroke="#f4fbff" stroke-width="2"><path d="M0 610 C210 540 360 650 560 585 C750 522 925 595 1200 520"/><path d="M0 660 C260 596 420 704 640 632 C855 568 1015 642 1200 590"/></g><g><rect x="300" y="180" width="600" height="420" rx="34" fill="#102a35" stroke="#f96fb3" stroke-width="5" stroke-opacity=".45"/><path d="M390 390 C500 250 700 250 810 390 C700 530 500 530 390 390Z" fill="#17d7c8" opacity=".24" stroke="#f4fbff" stroke-opacity=".35" stroke-width="6"/><circle cx="600" cy="390" r="78" fill="#f96fb3" opacity=".75"/><circle cx="600" cy="390" r="34" fill="#071013"/><g stroke="#6fa8ff" stroke-width="5" opacity=".7"><path d="M330 250 h90 v-40"/><path d="M870 530 h-90 v40"/><path d="M870 250 h-90 v-40"/><path d="M330 530 h90 v40"/></g></g><g opacity=".16" fill="#f4fbff"><circle cx="140" cy="128" r="3"/><circle cx="1010" cy="178" r="4"/><circle cx="1070" cy="580" r="3"/><circle cx="210" cy="610" r="4"/></g></svg>