<svg xmlns="http://www.w3.org/2000/svg" viewBox="0 0 1200 760" role="img" aria-label="ATS Resume Checker visual scene"><defs><linearGradient id="bg-ats-resume-checker" x1="0" x2="1" y1="0" y2="1"><stop offset="0" stop-color="#071013"/><stop offset=".45" stop-color="#102d38"/><stop offset="1" stop-color="#071013"/></linearGradient><radialGradient id="glow-ats-resume-checker" cx="50%" cy="40%" r="60%"><stop offset="0" stop-color="#17d7c8" stop-opacity=".24"/><stop offset="1" stop-color="#17d7c8" stop-opacity="0"/></radialGradient></defs><rect width="1200" height="760" fill="url(#bg-ats-resume-checker)"/><rect width="1200" height="760" fill="url(#glow-ats-resume-checker)"/><g opacity=".22" stroke="#f4fbff" stroke-width="2"><path d="M0 610 C210 540 360 650 560 585 C750 522 925 595 1200 520"/><path d="M0 660 C260 596 420 704 640 632 C855 568 1015 642 1200 590"/></g><g><rect x="340" y="150" width="390" height="510" rx="26" fill="#102d38" stroke="#17d7c8" stroke-opacity=".5" stroke-width="5"/><path d="M650 150 v120 h80" fill="none" stroke="#f4fbff" stroke-opacity=".35" stroke-width="8"/><g stroke="#f4fbff" stroke-opacity=".3" stroke-width="10" stroke-linecap="round"><path d="M410 315 h210"/><path d="M410 375 h245"/><path d="M410 435 h170"/></g><circle cx="790" cy="480" r="88" fill="#17d7c8" opacity=".22"/><path d="M746 480 l32 32 66-82" fill="none" stroke="#17d7c8" stroke-width="15" stroke-linecap="round" stroke-linejoin="round"/></g><g opacity=".16" fill="#f4fbff"><circle cx="140" cy="128" r="3"/><circle cx="1010" cy="178" r="4"/><circle cx="1070" cy="580" r="3"/><circle cx="210" cy="610" r="4"/></g></svg>